<?xml version="1.0" encoding="UTF-8"?>
<svg id="Calque_1" data-name="Calque 1" xmlns="http://www.w3.org/2000/svg" viewBox="0 0 74 38">
  <defs>
    <style>
      .cls-1 {
        fill: none;
        stroke: #f81808;
        stroke-width: 2px;
      }

      .cls-2 {
        fill: #f81808;
      }
    </style>
  </defs>
  <path class="cls-2" d="m25.15,10.88h2.66l4.63,11.31h.17l4.63-11.31h2.66v14.55h-2.09v-10.53h-.13l-4.29,10.5h-1.73l-4.29-10.51h-.13v10.53h-2.09v-14.55Zm18.94,0v14.55h-2.19v-14.55h2.19Zm3.22,14.68c-.39,0-.72-.14-1-.41-.28-.28-.42-.62-.42-1.01s.14-.72.42-.99c.28-.28.61-.42,1-.42s.72.14,1,.42c.28.27.42.61.42.99,0,.26-.07.5-.2.72-.13.21-.3.38-.51.51-.21.13-.45.19-.71.19Z"/>
  <path class="cls-1" d="m72.53,18.91c0,4.53-3.65,8.9-10.14,12.19-6.44,3.26-15.4,5.31-25.36,5.31s-18.92-2.05-25.36-5.31c-6.49-3.29-10.14-7.66-10.14-12.19s3.65-8.9,10.14-12.19c6.44-3.26,15.4-5.31,25.36-5.31s18.92,2.05,25.36,5.31c6.49,3.29,10.14,7.66,10.14,12.19Z"/>
</svg>