<?xml version="1.0" encoding="UTF-8"?>
<svg id="Calque_1" data-name="Calque 1" xmlns="http://www.w3.org/2000/svg" viewBox="0 0 650 88">
  <defs>
    <style>
      .cls-1 {
        fill: #fff;
      }

      .cls-2 {
        fill: none;
        stroke: #fff;
      }

      .cls-3 {
        fill: rgba(227, 227, 227, .2);
      }
    </style>
  </defs>
  <g>
    <rect class="cls-3" x=".28" y=".22" width="649.5" height="87.38" rx="40" ry="40"/>
    <rect class="cls-2" x=".78" y=".72" width="648.5" height="86.38" rx="39.5" ry="39.5"/>
  </g>
  <path class="cls-1" d="m268.19,50.91v-14.55h5.57c1.05,0,1.93.17,2.62.5.7.33,1.22.77,1.57,1.34.35.57.53,1.21.53,1.93,0,.59-.11,1.1-.34,1.52-.23.42-.53.76-.92,1.02-.38.26-.81.45-1.29.56v.14c.52.03,1.01.19,1.49.48.48.28.87.69,1.17,1.21.3.52.45,1.15.45,1.89s-.18,1.43-.55,2.03c-.36.6-.91,1.07-1.65,1.41-.73.35-1.66.52-2.77.52h-5.89Zm2.64-2.2h2.83c.96,0,1.65-.18,2.07-.55.43-.37.64-.84.64-1.42,0-.43-.11-.82-.32-1.16-.21-.35-.52-.62-.91-.82-.39-.2-.86-.31-1.41-.31h-2.9v4.26Zm0-6.16h2.61c.46,0,.86-.08,1.23-.25.36-.17.65-.41.86-.72.21-.31.32-.68.32-1.11,0-.56-.2-1.03-.6-1.39-.39-.36-.98-.55-1.75-.55h-2.66v4.01Zm22.41,1.09c0,1.57-.29,2.91-.88,4.03-.58,1.11-1.38,1.96-2.39,2.56-1,.59-2.14.89-3.42.89s-2.41-.3-3.42-.89c-1-.6-1.8-1.45-2.39-2.56-.58-1.12-.87-2.46-.87-4.02s.29-2.91.87-4.02c.59-1.12,1.38-1.97,2.39-2.56,1.01-.59,2.15-.89,3.42-.89s2.41.3,3.42.89c1.01.59,1.8,1.45,2.39,2.56.59,1.11.88,2.45.88,4.02Zm-2.65,0c0-1.1-.17-2.03-.52-2.79-.34-.76-.81-1.34-1.42-1.73-.61-.39-1.3-.59-2.1-.59s-1.49.2-2.1.59c-.61.39-1.08.96-1.43,1.73-.34.76-.51,1.69-.51,2.79s.17,2.04.51,2.8c.35.76.82,1.33,1.43,1.73.61.39,1.3.58,2.1.58s1.49-.19,2.1-.58c.61-.39,1.08-.97,1.42-1.73.35-.76.52-1.7.52-2.8Zm17.04,0c0,1.57-.29,2.91-.88,4.03-.58,1.11-1.38,1.96-2.39,2.56-1,.59-2.14.89-3.42.89s-2.42-.3-3.42-.89c-1-.6-1.8-1.45-2.39-2.56-.58-1.12-.87-2.46-.87-4.02s.29-2.91.87-4.02c.59-1.12,1.38-1.97,2.39-2.56,1.01-.59,2.15-.89,3.42-.89s2.41.3,3.42.89c1.01.59,1.8,1.45,2.39,2.56.59,1.11.88,2.45.88,4.02Zm-2.65,0c0-1.1-.17-2.03-.52-2.79-.34-.76-.81-1.34-1.42-1.73-.61-.39-1.31-.59-2.1-.59s-1.49.2-2.1.59c-.61.39-1.08.96-1.43,1.73-.34.76-.51,1.69-.51,2.79s.17,2.04.51,2.8c.35.76.82,1.33,1.43,1.73.61.39,1.3.58,2.1.58s1.49-.19,2.1-.58c.61-.39,1.08-.97,1.42-1.73.35-.76.52-1.7.52-2.8Zm4.04,7.27v-14.55h2.63v6.68h.18l5.68-6.68h3.22l-5.62,6.53,5.67,8.02h-3.17l-4.34-6.24-1.61,1.9v4.33h-2.63Zm18.16,0h-2.81l5.12-14.55h3.25l5.13,14.55h-2.81l-3.88-11.56h-.11l-3.88,11.56Zm.09-5.7h7.67v2.12h-7.67v-2.12Zm27.72-3.93h-2.66c-.08-.44-.22-.82-.42-1.16-.2-.34-.46-.63-.76-.87-.3-.24-.65-.41-1.04-.53-.38-.12-.8-.18-1.24-.18-.79,0-1.49.2-2.1.6-.61.39-1.09.97-1.44,1.73-.35.76-.52,1.68-.52,2.78s.17,2.05.52,2.81c.35.76.83,1.33,1.44,1.72.61.38,1.31.58,2.1.58.43,0,.84-.06,1.22-.17.38-.12.73-.29,1.03-.52.31-.23.57-.51.77-.84.21-.33.36-.71.44-1.14h2.66c-.1.71-.32,1.35-.65,1.96-.33.61-.76,1.14-1.29,1.61-.53.46-1.15.82-1.86,1.08-.71.26-1.5.38-2.36.38-1.28,0-2.42-.3-3.42-.89s-1.8-1.45-2.37-2.56c-.58-1.12-.87-2.46-.87-4.02s.29-2.91.87-4.02c.58-1.12,1.38-1.97,2.38-2.56,1-.59,2.14-.89,3.41-.89.81,0,1.56.11,2.26.34.7.23,1.32.56,1.86,1,.54.44.99.97,1.34,1.61.35.63.59,1.35.7,2.16Zm3.01,9.64h-2.81l5.12-14.55h3.25l5.13,14.55h-2.81l-3.88-11.56h-.11l-3.88,11.56Zm.09-5.7h7.67v2.12h-7.67v-2.12Zm11.41,5.7v-14.55h2.64v12.34h6.41v2.21h-9.04Zm10.23,0v-14.55h2.64v12.34h6.41v2.21h-9.04Z"/>
</svg>