<?xml version="1.0" encoding="UTF-8"?>
<svg id="Calque_1" data-name="Calque 1" xmlns="http://www.w3.org/2000/svg" viewBox="0 0 74 38">
  <defs>
    <style>
      .cls-1 {
        fill: none;
        stroke: #f81808;
        stroke-width: 2px;
      }

      .cls-2 {
        fill: #f81808;
      }
    </style>
  </defs>
  <path class="cls-2" d="m23.15,25.42v-14.55h2.19v12.66h6.59v1.89h-8.79Zm7.48-12.66v-1.89h11.26v1.89h-4.54v12.66h-2.19v-12.66h-4.53Zm17.25,12.66h-4.71v-14.55h4.86c1.43,0,2.65.29,3.67.87,1.02.58,1.81,1.41,2.35,2.49.55,1.08.82,2.37.82,3.88s-.28,2.82-.83,3.91c-.55,1.09-1.34,1.93-2.39,2.51-1.04.58-2.3.87-3.78.87Zm-2.51-1.92h2.39c1.11,0,2.03-.21,2.76-.62.73-.42,1.28-1.03,1.65-1.83.36-.8.55-1.78.55-2.93s-.18-2.11-.55-2.9c-.36-.8-.9-1.4-1.61-1.81-.71-.41-1.6-.62-2.66-.62h-2.53v10.71Z"/>
  <path class="cls-1" d="m72.53,18.91c0,4.53-3.65,8.9-10.14,12.19-6.44,3.26-15.4,5.31-25.36,5.31s-18.92-2.05-25.36-5.31c-6.49-3.29-10.14-7.66-10.14-12.19s3.65-8.9,10.14-12.19c6.44-3.26,15.4-5.31,25.36-5.31s18.92,2.05,25.36,5.31c6.49,3.29,10.14,7.66,10.14,12.19Z"/>
</svg>